# xmcd
#
# Track frame offsets: 
#        150
#        36914
#        74849
#        100323
#        120179
#        149557
#        172918
#        196325
#        221445
#        242560
#        267749
#
# Disc length: 4164 seconds
#
# Revision: 0
# Processed by: cddbd v1.5.2PL0 Copyright (c) Steve Scherf et al.
# Submitted via: ExactAudioCopy v0.95a5
#
DISCID=a710420b
DTITLE=Jim Conway - Music Deli Presents
DYEAR=2008
DGENRE=Folk/Rock
TTITLE0=01 Do It Again
TTITLE1=02 Passing Through
TTITLE2=03 The Sky Is Cryin'
TTITLE3=04 If The Wind Don't Change
TTITLE4=05 Smokestack Lightnin'
TTITLE5=06 Chitlins Con Carne
TTITLE6=07 Better Make The Most Of It
TTITLE7=08 Natural Ball
TTITLE8=09 Catfish Blues
TTITLE9=10 Bateman's Bay
TTITLE10=11 Motherless Children
EXTD=
EXTT0=
EXTT1=
EXTT2=
EXTT3=
EXTT4=
EXTT5=
EXTT6=
EXTT7=
EXTT8=
EXTT9=
EXTT10=
PLAYORDER=
